<svg width="40" height="40" viewBox="0 0 40 40" fill="none" xmlns="http://www.w3.org/2000/svg">
<g clip-path="url(#clip0_2_316)">
<path d="M33.9711 13.24L26.7594 6.02831C26.268 5.53729 25.473 5.5369 24.9816 6.02745L6.40723 24.5599L8.18418 26.3411L25.8692 8.6958L31.304 14.131L13.6592 31.8157L15.4399 33.5926L33.9723 15.0178C34.4625 14.5263 34.4621 13.7306 33.9711 13.24Z" fill="#2F80ED"/>
<path d="M36.1098 5.65146L34.3488 3.89045C33.9388 3.48037 33.3023 3.40365 32.8067 3.70467L26.7271 7.39443L28.0323 9.54497L33.2679 6.36716L33.6327 6.73232L30.4553 11.9679L32.6059 13.2732L36.2956 7.19349C36.5966 6.69802 36.5198 6.06107 36.1098 5.65146Z" fill="#2F80ED"/>
<path d="M17.7868 34.1633L5.83709 22.2136C5.34607 21.7222 4.54943 21.7222 4.0585 22.2136C3.56709 22.7047 3.56709 23.5013 4.0585 23.9922L16.0082 35.9419C16.2535 36.1876 16.5754 36.3104 16.8975 36.3104C17.219 36.3104 17.5415 36.1875 17.7868 35.9419C18.2782 35.451 18.2782 34.6543 17.7868 34.1633Z" fill="#2F80ED"/>
<path d="M17.4729 23.1787L5.73389 34.9609L7.51573 36.7362L19.2547 24.954L17.4729 23.1787Z" fill="#2F80ED"/>
<path d="M15.0012 20.707L3.26221 32.4893L5.04405 34.2646L16.783 22.4823L15.0012 20.707Z" fill="#2F80ED"/>
<path d="M10.4492 37.8529L2.14732 29.5506C1.65592 29.0595 0.859276 29.0588 0.368261 29.5506C-0.122754 30.0416 -0.122754 30.8377 0.368261 31.3292L8.67012 39.6315C8.91582 39.8772 9.23786 40 9.55981 40C9.88137 40 10.2039 39.8771 10.4491 39.6315C10.9402 39.1405 10.9402 38.3443 10.4492 37.8529Z" fill="#2F80ED"/>
<path d="M39.6313 0.368676C39.1399 -0.122729 38.3441 -0.122729 37.8527 0.368676L33.4501 4.77117C32.9587 5.26218 32.9587 6.05882 33.4501 6.54976C33.6958 6.79546 34.0174 6.91827 34.3394 6.91827C34.6614 6.91827 34.9834 6.79538 35.2287 6.54976L39.6312 2.14727C40.1227 1.65633 40.1227 0.859691 39.6313 0.368676Z" fill="#2F80ED"/>
<path d="M14.5997 18.3131L12.8208 20.0919L19.9065 27.1776L21.6854 25.3988L14.5997 18.3131Z" fill="#2F80ED"/>
</g>
<defs>
<clipPath id="clip0_2_316">
<rect width="40" height="40" fill="white"/>
</clipPath>
</defs>
</svg>
